<?xml version="1.0" encoding="iso-8859-1"?>
<!-- Generator: Adobe Illustrator 19.0.0, SVG Export Plug-In . SVG Version: 6.00 Build 0)  -->
<svg version="1.1" id="Capa_1" xmlns="http://www.w3.org/2000/svg" xmlns:xlink="http://www.w3.org/1999/xlink" x="0px" y="0px"
	 viewBox="0 0 384 384" style="enable-background:new 0 0 384 384;" xml:space="preserve">
<g>
	<g>
		<path d="M192,0C86.128,0,0,86.128,0,192s86.128,192,192,192s192-86.128,192-192S297.872,0,192,0z M192,352
			c-88.224,0-160-71.776-160-160S103.776,32,192,32s160,71.776,160,160S280.224,352,192,352z"/>
	</g>
</g>
<g>
	<g>
		<path d="M192,64c-26.472,0-48,21.528-48,48s21.528,48,48,48s48-21.528,48-48S218.472,64,192,64z M192,128c-8.824,0-16-7.176-16-16
			c0-8.824,7.176-16,16-16c8.824,0,16,7.176,16,16C208,120.824,200.824,128,192,128z"/>
	</g>
</g>
<g>
	<g>
		<path d="M192,224c-26.472,0-48,21.528-48,48s21.528,48,48,48s48-21.528,48-48S218.472,224,192,224z M192,288
			c-8.824,0-16-7.176-16-16c0-8.824,7.176-16,16-16c8.824,0,16,7.176,16,16C208,280.824,200.824,288,192,288z"/>
	</g>
</g>
<g>
	<g>
		<path d="M272,144c-26.472,0-48,21.528-48,48s21.528,48,48,48s48-21.528,48-48S298.472,144,272,144z M272,208
			c-8.824,0-16-7.176-16-16c0-8.824,7.176-16,16-16c8.824,0,16,7.176,16,16C288,200.824,280.824,208,272,208z"/>
	</g>
</g>
<g>
	<g>
		<path d="M112,144c-26.472,0-48,21.528-48,48s21.528,48,48,48s48-21.528,48-48S138.472,144,112,144z M112,208
			c-8.824,0-16-7.176-16-16c0-8.824,7.176-16,16-16c8.824,0,16,7.176,16,16C128,200.824,120.824,208,112,208z"/>
	</g>
</g>
<g>
</g>
<g>
</g>
<g>
</g>
<g>
</g>
<g>
</g>
<g>
</g>
<g>
</g>
<g>
</g>
<g>
</g>
<g>
</g>
<g>
</g>
<g>
</g>
<g>
</g>
<g>
</g>
<g>
</g>
</svg>
